HIERARCHY
ROOT Hips
{
	OFFSET	0.00	0.00	0.00
	CHANNELS 6 Xposition Yposition Zposition Zrotation Xrotation Yrotation
	JOINT LeftUpLeg
	{
		OFFSET	 0.126116	-0.014019	-0.065224
		CHANNELS 3 Zrotation Xrotation Yrotation
		JOINT LeftLeg
		{
			OFFSET	 0.000000	 0.000000	 0.569914
			CHANNELS 3 Zrotation Xrotation Yrotation
			JOINT LeftFoot
			{
				OFFSET	 0.000000	 0.000000	 0.544423
				CHANNELS 3 Zrotation Xrotation Yrotation
				JOINT LeftToeBase
				{
					OFFSET	 0.000000	 0.000000	 0.207117
					CHANNELS 3 Zrotation Xrotation Yrotation
					End Site
					{
						OFFSET	 0.000000	 0.000000	 0.207117
					}
				}
			}
		}
	}
	JOINT RightUpLeg
	{
		OFFSET	-0.124023	-0.008373	-0.065224
		CHANNELS 3 Zrotation Xrotation Yrotation
		JOINT RightLeg
		{
			OFFSET	 0.000000	 0.000000	 0.570047
			CHANNELS 3 Zrotation Xrotation Yrotation
			JOINT RightFoot
			{
				OFFSET	 0.000000	 0.000000	 0.544354
				CHANNELS 3 Zrotation Xrotation Yrotation
				JOINT RightToeBase
				{
					OFFSET	 0.000000	 0.000000	 0.207540
					CHANNELS 3 Zrotation Xrotation Yrotation
					End Site
					{
						OFFSET	 0.000000	 0.000000	 0.207540
					}
				}
			}
		}
	}
	JOINT Spine
	{
		OFFSET	 0.000184	-0.007763	 0.117403
		CHANNELS 3 Zrotation Xrotation Yrotation
		JOINT Spine1
		{
			OFFSET	 0.000000	 0.000000	 0.137269
			CHANNELS 3 Zrotation Xrotation Yrotation
			JOINT Spine2
			{
				OFFSET	 0.000000	 0.000000	 0.156879
				CHANNELS 3 Zrotation Xrotation Yrotation
				JOINT LeftShoulder
				{
					OFFSET	 0.080501	-0.002496	 0.160144
					CHANNELS 3 Zrotation Xrotation Yrotation
					JOINT LeftArm
					{
						OFFSET	 0.000000	 0.000000	 0.164363
						CHANNELS 3 Zrotation Xrotation Yrotation
						JOINT LeftForeArm
						{
							OFFSET	 0.000000	 0.000000	 0.364576
							CHANNELS 3 Zrotation Xrotation Yrotation
							JOINT LeftHand
							{
								OFFSET	 0.000000	 0.000000	 0.360812
								CHANNELS 3 Zrotation Xrotation Yrotation
								JOINT LeftHandIndex1
								{
									OFFSET	 0.000000	 0.000000	 0.086006
									CHANNELS 3 Zrotation Xrotation Yrotation
									JOINT LeftHandIndex2
									{
										OFFSET	 0.000000	 0.000000	 0.047237
										CHANNELS 3 Zrotation Xrotation Yrotation
										JOINT LeftHandIndex3
										{
											OFFSET	-0.004284	-0.000551	 0.038165
											CHANNELS 3 Zrotation Xrotation Yrotation
											End Site
											{
												OFFSET	-0.004284	-0.000551	 0.038165
											}
										}
									}
								}
							}
						}
					}
				}
				JOINT Neck
				{
					OFFSET	 0.000000	 0.000000	 0.176489
					CHANNELS 3 Zrotation Xrotation Yrotation
					JOINT Head
					{
						OFFSET	 0.000000	-0.001747	 0.077940
						CHANNELS 3 Zrotation Xrotation Yrotation
						End Site
						{
							OFFSET	 0.000000	-0.001747	 0.077940
						}
					}
				}
				JOINT RightShoulder
				{
					OFFSET	-0.080363	 0.000306	 0.159706
					CHANNELS 3 Zrotation Xrotation Yrotation
					JOINT RightArm
					{
						OFFSET	 0.000000	 0.000000	 0.164196
						CHANNELS 3 Zrotation Xrotation Yrotation
						JOINT RightForeArm
						{
							OFFSET	 0.000000	 0.000000	 0.365611
							CHANNELS 3 Zrotation Xrotation Yrotation
							JOINT RightHand
							{
								OFFSET	 0.000000	 0.000000	 0.360648
								CHANNELS 3 Zrotation Xrotation Yrotation
								JOINT RightHandIndex1
								{
									OFFSET	 0.000000	 0.000000	 0.069977
									CHANNELS 3 Zrotation Xrotation Yrotation
									JOINT RightHandIndex2
									{
										OFFSET	 0.000000	 0.000000	 0.052305
										CHANNELS 3 Zrotation Xrotation Yrotation
										JOINT RightHandIndex3
										{
											OFFSET	 0.009002	-0.000782	 0.042196
											CHANNELS 3 Zrotation Xrotation Yrotation
											End Site
											{
												OFFSET	 0.009002	-0.000782	 0.042196
											}
										}
									}
								}
							}
						}
					}
				}
			}
		}
	}
}
MOTION
Frames:    5
Frame Time: 0.03333334
-0.714917	-0.006225	 1.272777	-176.267000	-7.000794	-0.732168	 13.598530	 7.523921	 176.227200	-6.368660	-6.089829	-0.836061	-2.620136	 66.854480	-3.758538	-2.385833	 28.452760	 0.000004	-10.971410	 4.984881	-176.642600	 3.745697	-13.177860	 0.905548	 5.394880	 70.458410	-0.694786	 2.384659	 28.388700	-0.000001	 6.200544	 7.474221	-1.842334	 4.956275	 14.741060	 9.750520	-18.119020	-9.780746	-16.314870	-91.776200	 78.527400	-180.000000	 12.171640	-2.733498	 0.725621	-14.855360	-1.201876	-18.783360	-1.815128	-5.683844	-2.258322	-4.130354	 21.526190	 0.991307	-5.167926	 0.731697	 3.519349	-1.378229	 35.397820	-2.634230	-9.439140	 1.581038	 4.584421	-9.301221	-18.061180	-7.144456	 89.782140	 78.203850	 180.000000	 46.910690	 9.795828	-2.071645	 10.136390	-2.768599	 57.560020	 46.414310	 28.705350	-37.402680	 5.716295	 19.173350	-3.684826	 5.027458	 0.246833	-9.377971	-2.350882	 35.473990	 5.254307
-0.714942	-0.006258	 1.272648	-176.227100	-7.034414	-0.716234	 13.512430	 7.193500	 176.184400	-6.333086	-6.903744	-0.942920	-3.051621	 67.332710	-3.343708	-2.385833	 28.452760	 0.000004	-10.918770	 5.016246	-176.646400	 3.705864	-13.351890	 0.908052	 5.759827	 70.657440	-1.048800	 2.384659	 28.388700	-0.000001	 6.053955	 7.522185	-1.917675	 4.834306	 14.561320	 9.864379	-18.043690	-9.599023	-16.300220	-91.776190	 78.527400	-180.000000	 11.710810	-1.259459	 3.060981	-14.861850	-1.600028	-24.396230	-1.777650	-5.627442	-2.274881	-4.130354	 21.526190	 0.991307	-5.167926	 0.731697	 3.519349	-1.378229	 35.397820	-2.634230	-9.416643	 1.559061	 4.643007	-9.272405	-17.949020	-7.253983	 89.782130	 78.203870	 180.000000	 46.212640	 10.166390	-2.741197	 10.225330	-2.793427	 59.124100	 46.256400	 28.105800	-36.637530	 5.716295	 19.173350	-3.684826	 5.027458	 0.246833	-9.377971	-2.350882	 35.473990	 5.254307
-0.714998	-0.006350	 1.272306	-176.143900	-7.118327	-0.685831	 13.324250	 6.503212	 176.070400	-6.264390	-8.685634	-1.173995	-4.106943	 68.389690	-2.315898	-2.385833	 28.452760	 0.000004	-10.804830	 5.089319	-176.639900	 3.623487	-13.818230	 0.919389	 6.626298	 71.166160	-1.897513	 2.384659	 28.388700	-0.000001	 5.694448	 7.637198	-2.077304	 4.528619	 14.119910	 10.112280	-17.874610	-9.183224	-16.264560	-91.776150	 78.527400	 180.000000	 10.488860	 2.106083	 7.321943	-14.986120	-2.400059	-35.191300	-1.703193	-5.503341	-2.307674	-4.130354	 21.526190	 0.991307	-5.167926	 0.731697	 3.519349	-1.378229	 35.397820	-2.634230	-9.369116	 1.512915	 4.766648	-9.211093	-17.713060	-7.485710	 89.782060	 78.203850	-180.000000	 44.503430	 11.259170	-4.423641	 10.450650	-2.849484	 63.125990	 45.868150	 26.471400	-35.090820	 5.716295	 19.173350	-3.684826	 5.027458	 0.246833	-9.377971	-2.350882	 35.473990	 5.254307
-0.715290	-0.006805	 1.270596	-175.942400	-7.513710	-0.854811	 13.133810	 4.828562	 175.659400	-6.364945	-14.031750	-1.909309	-8.482285	 71.713300	 2.286241	-2.385833	 28.452760	 0.000004	-10.612840	 5.330487	-176.206300	 3.606980	-16.132020	 1.064914	 8.649073	 73.296780	-4.008718	 2.384659	 28.388700	-0.000001	 4.222676	 8.218179	-2.133790	 3.254368	 12.236540	 10.548400	-17.381670	-7.901713	-15.968460	-91.776160	 78.527420	 180.000000	 5.451787	 16.401990	 17.098090	-16.289510	-4.274277	-63.892990	-1.707992	-5.352089	-2.369117	-4.130354	 21.526190	 0.991307	-5.167926	 0.731697	 3.519349	-1.378229	 35.397820	-2.634230	-9.242868	 1.349346	 4.864105	-9.078135	-17.190340	-7.701567	 89.782170	 78.203870	 179.999900	 37.743720	 17.955110	-10.724530	 11.336620	-2.964419	 79.401420	 44.462750	 19.689250	-29.960920	 5.716295	 19.173350	-3.684826	 5.027458	 0.246833	-9.377971	-2.350882	 35.473990	 5.254307
-0.715642	-0.007455	 1.268214	-175.900100	-7.881433	-1.221220	 13.308420	 3.593205	 175.078600	-6.701137	-19.027730	-2.678141	-15.798030	 74.586990	 10.132240	-2.385833	 28.452760	 0.000004	-10.219140	 5.793676	-175.515000	 3.577171	-18.846150	 1.228337	 10.881450	 76.057500	-6.248573	 2.384659	 28.388700	-0.000001	 2.275156	 8.786707	-1.728413	 1.506059	 9.616041	 10.441880	-16.737490	-6.435814	-15.333180	-91.776180	 78.527420	-180.000000	 0.115152	 38.556820	 20.959900	-17.639120	-4.841669	-81.334610	-1.968830	-5.373794	-2.396921	-4.130354	 21.526190	 0.991307	-5.167926	 0.731697	 3.519349	-1.378229	 35.397820	-2.634230	-8.949276	 0.918321	 4.620923	-8.850504	-16.540230	-7.061301	 89.782100	 78.203870	 180.000000	 25.738710	 28.849510	-14.236350	 12.214170	-3.051334	 96.123290	 38.794170	 11.329250	-22.262620	 5.716295	 19.173350	-3.684826	 5.027458	 0.246833	-9.377971	-2.350882	 35.473990	 5.254307
